<svg xmlns="http://www.w3.org/2000/svg" width="256" height="256"><path fill-opacity=".016" d="M0 128.004v128.004l128.25-.254 128.25-.254.254-127.75L257.008 0H0v128.004m.485.496c0 70.4.119 99.053.265 63.672.146-35.38.146-92.98 0-128C.604 29.153.485 58.1.485 128.5" fill="#1976D2" fill-rule="evenodd"/><path fill-opacity=".195" d="M100.241 17.468c-6.677 3.108-12.592 7.142-23.099 15.753-9.247 7.577-15.543 11.223-17.852 10.337-.935-.359-1.318-1.345-.997-2.57.582-2.226-1.201-2.68-3.093-.788-2.127 2.127-1.423 6.608 1.319 8.405 4.865 3.187 12.566.333 26.832-9.944 15.636-11.263 28.208-15.04 37.151-11.161l3.998 1.735-5.116 1.209c-6.343 1.499-13.33 5.515-16.826 9.67-4.238 5.036-6.342 9.993-9.534 22.454-1.644 6.422-4.091 13.647-5.436 16.054-3.128 5.596-1.259 5.882 4.491.688 4.848-4.38 8.486-11.319 12.838-24.484C109.452 41.104 117.107 33 125.533 33c2.626 0 2.709-.159 2.172-4.163-1.613-12.028-14.548-17.382-27.464-11.369m-36.27 4.974c-13.115 4.833-22.998 12.37-37.517 28.61-6.303 7.049-14.615 15.163-18.473 18.032-3.858 2.869-6.856 5.375-6.662 5.569.495.494 10.663-3.077 14.768-5.188 7.943-4.083 16.101-10.54 26.748-21.169C58.633 32.523 66.669 27.42 80.209 24.564c6.083-1.283 6.198-1.364 3.476-2.446-3.75-1.49-15.309-1.3-19.714.324M248 59c-10.794 10.794-25.307 17.91-45.077 22.101-9.703 2.057-12.426 2.182-39.423 1.804-52.79-.738-68.419.016-86.33 4.166-22.223 5.148-40.931 16.796-50.36 31.357-13.211 20.399-9.666 49.461 9.658 79.173 6.674 10.263 22.841 32.423 23.311 31.954.483-.484-4.112-13.027-8.263-22.555-11.263-25.85-14.613-42.193-11.456-55.885 4.142-17.968 22.506-34.974 45.382-42.028 13.011-4.012 23.893-5.147 58.558-6.11 18.425-.512 37.682-1.425 42.793-2.029 30.123-3.563 54.337-18.348 64.877-39.615 1.954-3.942 3.39-7.542 3.191-8-.199-.458-3.286 2.092-6.861 5.667m-24.991 59.585c-6.954 4.385-18.277 8.75-28.509 10.991-10.913 2.39-36.699 2.36-59-.069-23.316-2.539-43.569-2.411-53.8.34-11.3 3.038-20.731 8.339-27.129 15.249-7.141 7.714-9.757 14.551-9.913 25.904-.116 8.487 1.773 20 3.281 20 .439 0 1.046-1.853 1.35-4.118.844-6.291 6.169-16.127 11.281-20.84 5.452-5.026 14.01-9.203 24.93-12.169 7.293-1.982 11.445-2.238 47-2.905 33.513-.629 40.266-1.013 48-2.73 19.756-4.386 33.747-12.801 44.536-26.785 2.336-3.027 4.064-5.686 3.842-5.909-.223-.222-2.864 1.146-5.869 3.041M182 170.184c-2.475 1.593-7.65 3.873-11.5 5.067-8.647 2.682-24.683 2.83-40.5.374-26.942-4.184-40.26-3.942-50.894.927-6.355 2.909-9.372 5.417-12.57 10.448-4.738 7.452-7.484 21.464-6.015 30.691l.765 4.809 1.747-5.724c3.842-12.594 9.004-18.008 20.967-21.995 6.065-2.022 8.54-2.174 37-2.269 26.605-.09 31.202-.335 36-1.919 8.085-2.67 13.908-5.863 19.195-10.525 4.757-4.196 11.355-11.902 10.676-12.47-.204-.17-2.396.993-4.871 2.586m-94 40.362v10.545l6.75-.295c5.202-.228 6.75-.64 6.75-1.796 0-1.08-1.33-1.585-4.75-1.805-3.882-.249-4.75-.65-4.75-2.192 0-1.506.859-1.95 4.241-2.196 3.094-.224 4.332-.78 4.574-2.057.277-1.46-.426-1.75-4.242-1.75-4.211 0-4.573-.198-4.573-2.5 0-2.296.367-2.5 4.5-2.5 3.833 0 4.5-.296 4.5-2 0-1.795-.667-2-6.5-2H88v10.546m22-9.84c-2.804 1.025-5.894 4.536-6.527 7.416-.939 4.278 1.217 9.666 4.561 11.395 3.754 1.942 10.359 1.919 11.986-.041 1.786-2.152.53-2.94-4.143-2.603-5.125.37-7.877-1.903-7.877-6.505 0-4.341 3.542-6.866 8.501-6.062 4.041.656 5.673-.975 2.961-2.958-1.845-1.349-6.639-1.674-9.462-.642m17.242.788c-1.895.824-3.708 2.585-4.335 4.211-1.441 3.738-.502 10.144 1.827 12.474 3.63 3.629 14.266 3.649 14.266.026 0-1.439-.705-1.691-3.889-1.387-6.056.578-8.111-1.039-8.111-6.378 0-3.973.315-4.609 2.74-5.531 1.506-.573 4.206-.766 6-.43 2.765.519 3.26.319 3.26-1.317 0-3.227-6.16-4.101-11.758-1.668m14.214-.239c-.297.772-.408 5.418-.247 10.324l.291 8.921 6.75.296c6.23.273 6.75.138 6.75-1.75 0-1.755-.633-2.046-4.46-2.046h-4.459l-.291-8.239c-.244-6.92-.571-8.292-2.043-8.574-.964-.184-1.995.297-2.291 1.068m16.253-.631c-.39.39-.709 5.134-.709 10.543V221h7c6.333 0 7-.19 7-2 0-1.733-.667-2-5-2-4.284 0-5-.278-5-1.943 0-1.569.814-2.001 4.241-2.25 3.031-.219 4.333-.789 4.562-1.996.254-1.339-.575-1.754-3.991-2-3.596-.259-4.365-.684-4.632-2.561-.295-2.083.062-2.25 4.824-2.25 4.358 0 5.092-.267 4.809-1.75-.266-1.395-1.555-1.809-6.364-2.042-3.317-.161-6.35.026-6.74.416m18.791.571c-2.707 1.535-3.467 2.828-3.485 5.933-.02 3.481 2.024 5.009 7.533 5.63 3.498.395 4.472.885 4.222 2.127-.25 1.246-1.518 1.605-5.547 1.572-4.249-.034-5.223.272-5.223 1.643 0 2.058 1.991 2.9 6.859 2.9 5.161 0 8.141-2.327 8.141-6.357 0-4.096-1.54-5.643-5.618-5.643-4.165 0-6.382-.882-6.382-2.54 0-1.84 3.52-2.773 7.587-2.01 2.926.549 3.413.365 3.413-1.288 0-3.016-7.414-4.284-11.5-1.967m15.167-.528c-.367.366-.667 5.091-.667 10.5 0 9.166.136 9.833 2 9.833 1.873 0 2-.667 2-10.5 0-8.083-.307-10.5-1.333-10.5-.734 0-1.634.3-2 .667m12.01 2.519-4.04 9.534c-3.136 7.398-3.218 8.28-.769 8.28 1.403 0 2.58-1.866 4.731-7.5 1.575-4.125 3.111-7.5 3.413-7.5.302 0 1.05 1.325 1.661 2.945.997 2.64.898 2.976-.952 3.25-3.367.498-3.306 2.805.074 2.805 2.349 0 3.22.622 4.205 3 .888 2.144 1.921 3 3.621 3 1.309 0 2.379-.113 2.379-.252s-1.945-4.751-4.323-10.25c-3.348-7.743-4.804-10.069-6.459-10.312-1.611-.237-2.483.501-3.541 3M88 233.559c0 5.451.363 8.335 1 7.941.55-.34 1.018-3.179 1.04-6.309l.04-5.691 2.272 5.262c3.557 8.239 4.147 8.371 7.327 1.635l2.783-5.897.32 5.778c.474 8.568 2.218 5.945 2.218-3.337 0-10.113-1.755-10.618-5.886-1.691l-2.893 6.25-2.774-6.25c-3.962-8.925-5.447-8.295-5.447 2.309m24-.059c0 5 .412 8.5 1 8.5.588 0 1-3.5 1-8.5s-.412-8.5-1-8.5c-.588 0-1 3.5-1 8.5m9-.632c0 4.408.45 8.292 1 8.632.625.386 1-1.656 1-5.441 0-3.332.338-6.046.75-6.03.412.016 2.701 2.716 5.084 6 2.384 3.284 4.747 5.971 5.25 5.971.504 0 .916-3.825.916-8.5 0-5-.412-8.5-1-8.5-.559 0-1 2.725-1 6.175v6.175l-4.586-5.925c-6.562-8.48-7.414-8.314-7.414 1.443m21.21.382c.373 10.598 2.193 10.426 2.58-.243.245-6.755.044-8.007-1.29-8.007-1.337 0-1.536 1.273-1.29 8.25m10.54-7.17c-2.029 1.182-2.325 5.198-.496 6.716.69.572 2.827 1.19 4.75 1.372 2.74.26 3.565.819 3.816 2.582.291 2.052-.084 2.25-4.25 2.25-4.522 0-6.045 1.22-2.988 2.393 4.719 1.811 10.418-.877 10.418-4.915 0-2.826-2.583-4.478-7.004-4.478-2.679 0-3.089-.327-2.816-2.25.277-1.947.893-2.238 4.57-2.164 2.923.06 4.25-.331 4.25-1.25 0-1.615-7.59-1.805-10.25-.256m16.25-.15c0 .512 1.012 1.075 2.25 1.25 2.065.294 2.274.917 2.544 7.57.388 9.571 2.206 9.365 2.206-.25 0-7.333.056-7.5 2.5-7.5 1.375 0 2.5-.45 2.5-1 0-.556-2.667-1-6-1-3.3 0-6 .419-6 .93m17.21 7.32c.359 10.214 2.182 10.919 2.584 1l.294-7.25h2.956c2.333 0 2.956.441 2.956 2.094 0 1.252-.803 2.303-2 2.616-1.1.288-2 .93-2 1.428 0 1.267 5.113 8.862 5.966 8.862 1.938 0 1.782-1.642-.431-4.543-2.431-3.188-2.436-3.236-.495-4.993 4.277-3.871 1.736-7.464-5.28-7.464h-4.841l.291 8.25m17.79-7.71c0 .297.979 2.434 2.176 4.75 1.196 2.315 2.434 5.738 2.75 7.606.787 4.656 2.452 4.447 3.152-.396.318-2.2 1.611-5.707 2.874-7.793 2.235-3.691 2.282-5.588.105-4.242-.592.365-1.916 2.302-2.942 4.303l-1.867 3.638-2.144-4.203c-1.18-2.312-2.586-4.203-3.124-4.203-.539 0-.98.243-.98.54" fill="#1976D2" fill-rule="evenodd"/><path fill-opacity=".371" d="M106.281 15.97c-5.094 1.21-13.249 5.603-19.995 10.77a6255.71 6255.71 0 0 0-14.383 11.064c-9.033 6.971-12.82 7.849-13.902 3.225l-.578-2.472-1.711 2.444c-2.122 3.029-2.152 4.416-.141 6.428 4.11 4.109 13.627.872 27.931-9.5 15.859-11.499 27.8-15.101 36.827-11.108C122.898 27.958 125 29.3 125 29.804c0 .505-2.296 1.189-5.102 1.522-8.4.995-17.117 7.395-21.429 15.734-.862 1.668-2.871 8.156-4.463 14.418-1.593 6.262-3.852 13.26-5.021 15.551-2.493 4.887-2.082 5.879 1.374 3.319 4.291-3.177 9.368-12.02 12.705-22.127 1.765-5.346 3.831-10.952 4.591-12.458C111.105 38.933 119.822 32 124.96 32c1.576 0 2.04-.648 2.04-2.852 0-4.177-3.884-9.329-8.97-11.898-4.657-2.353-6.425-2.545-11.749-1.28M66.76 22.558C52.947 25.906 41.69 34.279 24.49 54c-4.557 5.225-11.242 11.727-14.855 14.449-3.613 2.722-6.426 5.093-6.251 5.269.751.751 14.677-5.65 20.149-9.261 3.282-2.165 12.498-10.242 20.48-17.947 15.805-15.257 24.385-20.831 34.035-22.111 5.654-.75 6.386-1.862 1.827-2.774-4.241-.848-6.401-.695-13.115.933M247.396 60.5c-7.446 7.319-14.737 11.78-26.434 16.173-17.898 6.723-18.239 6.755-72.962 6.849-41.827.072-51.047.35-59.483 1.792-23.959 4.097-40.447 11.595-53.116 24.156-5.763 5.714-8.998 9.905-11.216 14.53-11.186 23.319-3.592 52.54 22.876 88.027 4.792 6.426 9.251 12.687 9.907 13.914.657 1.227 1.408 2.016 1.67 1.754.49-.489-3.499-11.002-10.518-27.723-9.349-22.27-11.85-39.276-7.683-52.252 4.311-13.427 16.853-26.42 33.063-34.252 17.401-8.407 29.736-10.263 76-11.435 29.152-.738 36.716-1.237 45.273-2.983 26.693-5.449 46.849-19.007 56.205-37.807 1.754-3.525 3.039-6.484 2.856-6.576-.184-.092-3.081 2.533-6.438 5.833M221.5 120.218c-18.447 11.306-44.143 14.195-87 9.782-40.156-4.135-58.011-1.604-74.601 10.574-12.476 9.159-17.874 27.166-13.466 44.926 1.209 4.873 1.259 4.924 1.973 2 4.766-19.52 16.744-29.725 41.186-35.09 6.532-1.433 13.823-1.766 41.908-1.915 20.873-.11 36.703-.64 41-1.371 20.424-3.478 33.724-9.554 44.972-20.545 5.811-5.678 10.865-11.92 9.313-11.502-.157.042-2.535 1.456-5.285 3.141m-42.35 52.01c-2.942 1.653-7.667 3.623-10.5 4.377-7.333 1.953-23.94 1.684-39.65-.64-40.942-6.059-56.077-2.188-64.631 16.53-2.356 5.156-2.784 7.534-3.056 17l-.316 11.005 2.089-6c4.2-12.065 10.3-17.423 23.974-21.059 5.413-1.44 10.745-1.686 33.44-1.543 24.236.152 27.81-.039 34.914-1.865 8.963-2.305 14.98-5.512 21.339-11.373 3.625-3.342 9.204-9.947 8.065-9.549-.175.061-2.725 1.464-5.668 3.117M88 210.333c0 5.134.186 9.521.413 9.75.228.229 3.177.263 6.553.076 7.078-.394 7.922-2.472 1.206-2.966-3.673-.271-4.172-.6-4.172-2.75 0-2.183.425-2.443 4-2.443 2.889 0 4-.417 4-1.5s-1.111-1.5-4-1.5c-3.6 0-4-.25-4-2.5 0-2.296.367-2.5 4.5-2.5 3.333 0 4.5-.389 4.5-1.5 0-1.179-1.389-1.5-6.5-1.5H88v9.333m18.455-6.878c-2.893 2.892-3.387 9.769-.952 13.246 1.928 2.752 7.653 4.643 11.5 3.798 4.78-1.049 3.787-3.377-1.356-3.178-5.785.224-7.647-1.458-7.647-6.908 0-5.086 1.642-6.413 7.934-6.413 2.948 0 4.066-.413 4.066-1.5 0-1.153-1.283-1.5-5.545-1.5-4.555 0-5.985.439-8 2.455m18.99-.162c-2.299 1.979-2.778 3.195-2.778 7.057 0 7.483 5.456 11.575 13.333 10 4.907-.981 3.729-3.225-1.588-3.024-3.737.142-4.943-.264-6.5-2.187-2.318-2.861-2.44-5.94-.355-8.916 1.257-1.796 2.522-2.223 6.583-2.223 6.824 0 6.093-2.389-.857-2.798-4.153-.245-5.556.129-7.838 2.091M142 210.5v9.5h11.75c.412 0 .75-.562.75-1.25 0-.782-1.779-1.364-4.75-1.555l-4.75-.305v-7.945c0-6.396-.293-7.945-1.5-7.945-1.228 0-1.5 1.722-1.5 9.5m15-.167c0 5.134.186 9.521.413 9.75.227.229 3.401.265 7.054.079 7.763-.395 8.612-2.484 1.205-2.967-4.206-.274-4.672-.549-4.672-2.75 0-2.231.394-2.445 4.5-2.445 3.333 0 4.5-.389 4.5-1.5s-1.167-1.5-4.5-1.5c-4.133 0-4.5-.204-4.5-2.5s.367-2.5 4.5-2.5c3.333 0 4.5-.389 4.5-1.5 0-1.179-1.389-1.5-6.5-1.5H157v9.333m18.051-7.384c-4.186 4.186-2.109 8.223 4.629 8.997 3.934.452 4.876.944 5.122 2.674.362 2.534-2.297 3.499-7.375 2.675-2.662-.433-3.427-.212-3.427.986 0 3.409 11.988 2.908 14.214-.594 1.029-1.618.951-4.879-.16-6.633-.503-.796-3.084-1.696-5.734-2-3.969-.456-4.82-.907-4.82-2.554 0-1.711.768-2.044 5.315-2.305 6.909-.395 6.476-2.581-.593-2.996-4.088-.239-5.535.114-7.171 1.75M191 210.5c0 8.833.14 9.5 2 9.5 1.86 0 2-.667 2-9.5s-.14-9.5-2-9.5c-1.86 0-2 .667-2 9.5m13.094-7.319c-.5 1.275-2.264 5.465-3.92 9.311-2.076 4.822-2.663 7.206-1.89 7.684 1.717 1.061 2.151.458 5.126-7.125 1.522-3.878 3.105-7.051 3.518-7.051.662 0 3.072 4.352 3.072 5.547 0 .249-.852.453-1.893.453s-2.152.675-2.469 1.5c-.431 1.124.163 1.5 2.368 1.5 2.251 0 3.303.697 4.476 2.966 1 1.934 2.053 2.766 3.026 2.393.821-.315 1.492-.67 1.492-.79 0-.119-1.737-4.233-3.86-9.143-2.95-6.82-4.365-9.001-5.999-9.245-1.48-.221-2.417.394-3.047 2M88.667 225.667c-.367.366-.582 4.079-.478 8.25.174 6.96.219 7.11.55 1.833.198-3.162.745-5.75 1.215-5.75.47 0 1.881 2.475 3.134 5.5 1.254 3.025 2.614 5.5 3.023 5.5.408 0 1.995-2.588 3.527-5.75l2.784-5.75.579 6c.39 4.036.839 5.447 1.372 4.312 1.082-2.303.37-13.783-.873-14.076-.55-.13-2.414 2.689-4.141 6.264l-3.142 6.5-3.067-6.75c-3.156-6.947-3.353-7.214-4.483-6.083m33 0c-1.037 1.036-.785 14.142.285 14.803.552.342 1.076-2.043 1.25-5.691l.298-6.279 4.808 6.25c2.645 3.438 5.233 6.25 5.75 6.25.518 0 .942-3.69.942-8.2 0-5.977-.299-7.901-1.103-7.097-.621.621-.949 3.333-.75 6.201.194 2.803.042 5.097-.339 5.097-.38-.001-2.769-2.701-5.308-6.001-4.954-6.438-4.836-6.33-5.833-5.333M143.349 233c0 4.675.173 6.588.383 4.25.211-2.338.211-6.162 0-8.5-.21-2.338-.383-.425-.383 4.25m9.674-6.023c-3.384 3.384-.941 6.981 4.758 7.008 3.72.017 5.168 2.166 3.122 4.631-.947 1.142-2.392 1.448-5.112 1.083-2.14-.287-3.548-.115-3.232.396.899 1.455 8.082 1.042 9.395-.54.66-.795 1.052-2.482.873-3.75-.257-1.813-1.287-2.536-4.827-3.389-7.475-1.801-6.45-5.864 1.41-5.587 2.972.104 3.68-.122 2.59-.828-2.48-1.605-6.874-1.127-8.977.976M169 226c0 .55 1.125 1 2.5 1 2.429 0 2.5.2 2.5 7 0 4 .429 7 1 7s1-3 1-7c0-6.333.19-7 2-7 1.1 0 2-.45 2-1s-2.475-1-5.5-1-5.5.45-5.5 1m18.199 7.25.198 8.25.347-7.308.346-7.307 3.697.307c4.576.381 5.526 3.056 1.782 5.018l-2.552 1.337 2.651 3.727c1.458 2.049 3.084 3.726 3.614 3.726.529 0 .226-1.012-.674-2.25-2.824-3.884-2.924-4.807-.736-6.845 1.17-1.091 2.128-2.383 2.128-2.873 0-2.097-3.394-4.032-7.071-4.032H187l.199 8.25m16.846-8.126c-.025.343 1.147 2.758 2.605 5.365 1.457 2.608 2.986 6.152 3.397 7.876l.748 3.135.108-3c.059-1.65 1.216-4.8 2.571-7 1.355-2.2 2.46-4.675 2.456-5.5-.005-.825-1.197.473-2.65 2.885-2.944 4.886-2.094 5.125-7.485-2.1-.938-1.257-1.726-2.004-1.75-1.661M112 233.5c0 4.333.422 7.5 1 7.5.578 0 1-3.167 1-7.5s-.422-7.5-1-7.5c-.578 0-1 3.167-1 7.5" fill="#1976D2" fill-rule="evenodd"/><path fill-opacity=".166" d="M72 38.571c-6.531 5.266-11.371 7.196-13.539 5.397-.803-.667-1.468-1.945-1.476-2.84-.014-1.417-.142-1.433-.985-.128-3.048 4.716.824 8.828 7.173 7.617 3.75-.715 14.314-6.464 13.455-7.322-.307-.307-.108-1.399.442-2.426.709-1.325.663-1.869-.157-1.869-.838 0-.814-.414.087-1.5 1.932-2.328.943-1.721-5 3.071M21.962 57.778c-1.904 2.078-6.139 6.128-9.412 9C9.278 69.65 6.941 72 7.356 72c1.411 0 12.592-5.868 17.13-8.99 4.513-3.105 4.515-3.108 2.989-6.058C26.635 55.328 25.83 54 25.686 54c-.144 0-1.82 1.7-3.724 3.778m63.42 28.741C73 88.786 65.788 91.087 55.5 96.055c-16.727 8.077-27.306 18.347-32.672 31.72-1.997 4.977-2.299 7.488-2.31 19.225-.011 12.26.247 14.235 2.804 21.5 3.122 8.872 9.102 21.098 14.431 29.5 4.633 7.307 18.539 26.041 18.993 25.588.197-.198-1.24-4.235-3.194-8.973s-5.178-12.552-7.166-17.365c-10.012-24.24-10.918-44.083-2.658-58.25 8.323-14.276 27.45-27.777 46.076-32.522 4.672-1.19 5.003-1.398 1.844-1.154-3.338.258-3.619.128-2.103-.981.962-.703 2.133-1.042 2.602-.752.469.29.853-3.517.853-8.459 0-7.717.247-9.05 1.75-9.443 3.83-1-2.365-.452-9.368.83m2.887 1.174c.973.254 2.323.237 3-.037.677-.274-.119-.481-1.769-.461-1.65.02-2.204.244-1.231.498m3.345 41.405c-20.591 2.171-38.23 13.276-43.54 27.409-2.497 6.646-3.152 16.951-1.716 26.993l.858 6 1.769-5.702c4.979-16.047 16.109-25.576 36.122-30.926 6.714-1.794 12.294-2.369 27.893-2.874 10.725-.346 18.825-.741 18-.877-1.027-.17-.813-.525.68-1.126 1.662-.67 2.331-2.021 2.814-5.687 1.012-7.685 1.058-7.823 2.485-7.502 1.081.244 1.112.008.149-1.152-.954-1.149-.937-1.555.08-1.91 1.661-.579-5.601-1.545-20.708-2.753-13.35-1.067-13.771-1.065-24.886.107m48.136 2.564c.688.278 1.813.278 2.5 0 .688-.277.125-.504-1.25-.504s-1.937.227-1.25.504m-51.499 42.854c-17.369 3.774-25.68 14.576-26.785 34.816-.471 8.618-.417 8.955.896 5.613 5.691-14.474 11.567-19.247 27.723-22.524 6.507-1.319 11.702-1.598 22.915-1.231 7.975.261 12.555.298 10.178.082-3.622-.33-4.129-.626-3.129-1.831.745-.898 1.033-3.631.768-7.293-.398-5.502-.299-5.827 1.63-5.355 1.129.276 1.751.171 1.382-.233-.902-.988-19.185-3.536-24.829-3.461-2.475.033-7.312.671-10.749 1.417M88 210.5v9.5h6.5c7.475 0 8.861-1.739 1.75-2.195-4.35-.279-4.777-.537-5.066-3.055-.305-2.645-.142-2.75 4.25-2.75 3.392 0 4.566-.386 4.566-1.5 0-1.111-1.167-1.5-4.5-1.5-4.106 0-4.5-.214-4.5-2.445 0-2.201.466-2.476 4.672-2.75 2.611-.171 4.853-.856 5.083-1.555.301-.915-1.352-1.25-6.172-1.25H88v9.5m20.364-8.355c-4.177 2.07-5.56 8.642-2.901 13.783 1.779 3.442 3.269 4.072 9.619 4.072 3.557 0 4.918-.389 4.918-1.405 0-1.057-.971-1.274-3.924-.878-3.281.44-4.346.104-6.5-2.05-3.031-3.031-3.298-6.554-.737-9.717 1.463-1.806 2.806-2.257 6.554-2.2 3.155.047 4.588-.313 4.332-1.09-.497-1.511-8.608-1.879-11.361-.515m18.951-.162c-4.972 2.058-6.051 11.372-1.808 15.614 2.121 2.122 3.275 2.461 7.513 2.205 2.753-.166 5.113-.743 5.243-1.282.135-.557-1.568-.85-3.942-.679-3.164.228-4.681-.201-6.25-1.77-2.084-2.084-2.785-7.4-1.285-9.758 1.213-1.908 5.445-3.096 9.091-2.552 2.576.384 3.27.175 2.922-.879-.54-1.64-8.236-2.242-11.484-.899M142 210.5v9.5h6c3.333 0 6-.444 6-1 0-.55-2.025-1-4.5-1H145v-8.5c0-6.889-.284-8.5-1.5-8.5-1.228 0-1.5 1.722-1.5 9.5m16 0v9.5h6c3.333 0 6-.444 6-1 0-.55-2.025-1-4.5-1-4.314 0-4.5-.122-4.5-2.943 0-2.746.283-2.962 4.25-3.25 2.338-.169 4.25-.757 4.25-1.307 0-.55-1.912-1.138-4.25-1.307-3.726-.27-4.25-.602-4.25-2.693 0-2.083.528-2.424 4.172-2.693 2.295-.169 4.358-.869 4.584-1.557.298-.908-1.253-1.25-5.673-1.25H158v9.5m17.75-8.445c-2.035 1.215-2.393 6.902-.55 8.745.66.66 3.149 1.2 5.531 1.2 4.74 0 6.455 1.866 4.205 4.577-.897 1.081-2.679 1.467-5.862 1.271-2.582-.159-4.47.14-4.336.685.132.532 2.679 1.101 5.661 1.264 4.687.257 5.637-.01 7.011-1.972 2.091-2.986 2.006-4.409-.41-6.825-1.333-1.333-3.333-2-6-2-3.35 0-4-.329-4-2.025 0-2.517 3.359-3.888 7.877-3.214 2.576.384 3.27.175 2.922-.879-.564-1.709-9.538-2.325-12.049-.827m16.25 8.362c0 6.999.337 9.583 1.25 9.583 1.621.001 1.457-18.264-.169-18.806-.725-.242-1.081 2.798-1.081 9.223m9.283.136c-3.235 7.582-3.737 9.488-2.432 9.237.978-.188 2.836-3.247 4.589-7.553 1.619-3.98 3.236-7.237 3.592-7.237.725 0 2.968 4.57 2.968 6.047 0 .524-.9.953-2 .953-1.111 0-2 .667-2 1.5 0 .981.982 1.5 2.839 1.5 2.059 0 3.153.688 3.979 2.5.627 1.375 1.807 2.5 2.623 2.5 1.143 0 .667-1.891-2.078-8.25-1.958-4.537-3.789-8.812-4.069-9.5-.279-.687-1.279-1.25-2.222-1.25-1.214 0-2.901 2.785-5.789 9.553M89.032 226.821c-.018.727.643 1.997 1.468 2.822 1.928 1.928 1.951.335.032-2.202-.921-1.218-1.48-1.449-1.5-.62m12.129 1.726c-1.512 3.318-1.439 4.509.119 1.953 1.07-1.755 1.291-1.264 1.802 4l.582 6 .168-7.25c.175-7.537-.688-9.056-2.671-4.703M122.218 233c.149 6.978.185 7.095.523 1.684.199-3.199.75-5.674 1.224-5.5.474.174 2.925 2.982 5.448 6.241 2.523 3.258 4.587 5.466 4.587 4.907 0-.934-1.451-2.776-9.221-11.705l-2.72-3.127.159 7.5m21.125.5c.003 4.4.179 6.076.39 3.724.212-2.352.209-5.952-.006-8s-.388-.124-.384 4.276m43.807.25c.152 7.888.55 6.954 1.064-2.501.157-2.887-.052-5.25-.464-5.25-.412.001-.683 3.489-.6 7.751m8.35-4.75c0 1.545.338 2.6.75 2.345.412-.254.75-1.31.75-2.345 0-1.035-.338-2.091-.75-2.345-.412-.255-.75.8-.75 2.345m9.5-2.059c0 .518.445 1.216.989 1.552.566.35.734-.051.393-.941-.665-1.732-1.382-2.049-1.382-.611m8.5 2.059c-.853 1.65-1.326 3-1.051 3 .275 0 1.198-1.35 2.051-3 .853-1.65 1.326-3 1.051-3-.275 0-1.198 1.35-2.051 3m-61.5.441c0 1.343.369 2.669.819 2.947.451.279.624-.82.387-2.441-.525-3.574-1.206-3.86-1.206-.506m56.452 3.259c.851 1.761 1.612 4.461 1.69 6 .108 2.13.287 1.842.75-1.2.353-2.319.188-4.173-.392-4.412-.55-.227-1.584-1.127-2.298-2-.781-.955-.682-.313.25 1.612m-16.447.883c.003.505 1.165 2.267 2.583 3.917l2.577 3-2.259-3.5c-2.897-4.49-2.907-4.501-2.901-3.417m-30.124 3.198c-.329 1.988-.183 2.921.372 2.366.504-.504.749-1.981.544-3.282-.315-2.001-.455-1.861-.916.916m-67.866-.222c.023 1.382 1.799 3.961 2.349 3.41.26-.259-.166-1.345-.946-2.412-.78-1.066-1.411-1.516-1.403-.998m61.235 4.13c.963.252 2.537.252 3.5 0 .963-.251.175-.457-1.75-.457s-2.713.206-1.75.457" fill="#1976D2" fill-rule="evenodd"/></svg>